
--- STDERR ---
[Parsed_subtitles_73 @ 0x90b078000] libass API version: 0x1704000
[Parsed_subtitles_73 @ 0x90b078000] libass source: tarball: 0.17.4
[Parsed_subtitles_73 @ 0x90b078000] Shaper: FriBidi 1.0.16 (SIMPLE) HarfBuzz-ng 12.1.0 (COMPLEX)
[Parsed_subtitles_73 @ 0x90b078000] Using font provider coretext
Input #0, mov,mp4,m4a,3gp,3g2,mj2, from 'projects/测试/素材/视频/content-01-ancient-male-dragon-battle.mp4':
  Metadata:
    major_brand     : isom
    minor_version   : 512
    compatible_brands: isomiso2avc1mp41
    encoder         : Lavf59.14.100
  Duration: 00:00:57.76, start: 0.000000, bitrate: 3524 kb/s
  Stream #0:0[0x1](und): Video: h264 (High) (avc1 / 0x31637661), yuv420p(tv, bt709, progressive), 1280x720 [SAR 1:1 DAR 16:9], 3463 kb/s, 25 fps, 25 tbr, 90k tbn (default)
    Metadata:
      handler_name    : VideoHandler
      vendor_id       : [0][0][0][0]
  Stream #0:1[0x2](und): Audio: aac (HE-AAC) (mp4a / 0x6134706D), 44100 Hz, stereo, fltp, 56 kb/s (default)
    Metadata:
      handler_name    : SoundHandler
      vendor_id       : [0][0][0][0]
Input #1, mov,mp4,m4a,3gp,3g2,mj2, from 'projects/测试/素材/视频/content-02-purple-cultivation-battle.mp4':
  Metadata:
    major_brand     : isom
    minor_version   : 512
    compatible_brands: isomiso2avc1mp41
    encoder         : Lavf59.14.100
  Duration: 00:01:44.35, start: 0.000000, bitrate: 3458 kb/s
  Stream #1:0[0x1](und): Video: h264 (High) (avc1 / 0x31637661), yuv420p(tv, bt709, progressive), 1280x720 [SAR 1:1 DAR 16:9], 3396 kb/s, 30 fps, 30 tbr, 90k tbn (default)
    Metadata:
      handler_name    : VideoHandler
      vendor_id       : [0][0][0][0]
  Stream #1:1[0x2](und): Audio: aac (HE-AAC) (mp4a / 0x6134706D), 44100 Hz, stereo, fltp, 56 kb/s (default)
    Metadata:
      handler_name    : SoundHandler
      vendor_id       : [0][0][0][0]
Input #2, mov,mp4,m4a,3gp,3g2,mj2, from 'projects/测试/素材/视频/content-03-ice-gold-dragon-clash.mp4':
  Metadata:
    major_brand     : isom
    minor_version   : 512
    compatible_brands: isomiso2avc1mp41
    encoder         : Lavf59.14.100
  Duration: 00:00:15.05, start: 0.000000, bitrate: 4804 kb/s
  Stream #2:0[0x1](und): Video: h264 (High) (avc1 / 0x31637661), yuv420p(tv, bt709, progressive), 1280x720 [SAR 1:1 DAR 16:9], 4744 kb/s, 30 fps, 30 tbr, 90k tbn (default)
    Metadata:
      handler_name    : VideoHandler
      vendor_id       : [0][0][0][0]
  Stream #2:1[0x2](und): Audio: aac (HE-AAC) (mp4a / 0x6134706D), 44100 Hz, stereo, fltp, 56 kb/s (default)
    Metadata:
      handler_name    : SoundHandler
      vendor_id       : [0][0][0][0]
Input #3, mp3, from 'projects/测试/素材/音频/男声2.mp3':
  Metadata:
    encoder         : Lavf59.27.100
  Duration: 00:00:55.10, start: 0.025057, bitrate: 128 kb/s
  Stream #3:0: Audio: mp3 (mp3float), 44100 Hz, mono, fltp, 128 kb/s, start 0.025057
Stream mapping:
  Stream #0:0 (h264) -> trim:default
  Stream #0:0 (h264) -> trim:default
  Stream #0:0 (h264) -> trim:default
  Stream #0:0 (h264) -> trim:default
  Stream #1:0 (h264) -> trim:default
  Stream #1:0 (h264) -> trim:default
  Stream #1:0 (h264) -> trim:default
  Stream #1:0 (h264) -> trim:default
  Stream #1:0 (h264) -> trim:default
  Stream #2:0 (h264) -> trim:default
  Stream #2:0 (h264) -> trim:default
  Stream #2:0 (h264) -> trim:default
  subtitles:default -> Stream #0:0 (libx264)
  Stream #3:0 -> #0:1 (mp3 (mp3float) -> aac (native))
Press [q] to stop, [?] for help
[Parsed_subtitles_73 @ 0x90b902040] libass API version: 0x1704000
[Parsed_subtitles_73 @ 0x90b902040] libass source: tarball: 0.17.4
[Parsed_subtitles_73 @ 0x90b902040] Shaper: FriBidi 1.0.16 (SIMPLE) HarfBuzz-ng 12.1.0 (COMPLEX)
[Parsed_subtitles_73 @ 0x90b902040] Using font provider coretext
[libx264 @ 0x90b0a7480] using SAR=1/1
[libx264 @ 0x90b0a7480] using cpu capabilities: ARMv8 NEON DotProd I8MM
[libx264 @ 0x90b0a7480] profile High, level 3.1, 4:2:0, 8-bit
[libx264 @ 0x90b0a7480] 264 - core 165 r3222 b35605a - H.264/MPEG-4 AVC codec - Copyleft 2003-2025 - http://www.videolan.org/x264.html - options: cabac=1 ref=1 deblock=1:0:0 analyse=0x3:0x113 me=hex subme=2 psy=1 psy_rd=1.00:0.00 mixed_ref=0 me_range=16 chroma_me=1 trellis=0 8x8dct=1 cqm=0 deadzone=21,11 fast_pskip=1 chroma_qp_offset=0 threads=15 lookahead_threads=5 sliced_threads=0 nr=0 decimate=1 interlaced=0 bluray_compat=0 constrained_intra=0 bframes=3 b_pyramid=2 b_adapt=1 b_bias=0 direct=1 weightb=1 open_gop=0 weightp=1 keyint=250 keyint_min=25 scenecut=40 intra_refresh=0 rc_lookahead=10 rc=crf mbtree=1 crf=18.0 qcomp=0.60 qpmin=0 qpmax=69 qpstep=4 ip_ratio=1.40 aq=1:1.00
Output #0, mp4, to 'projects/测试/结果/auto-edit/edit/preview_male2_12s.mp4':
  Metadata:
    major_brand     : isom
    minor_version   : 512
    compatible_brands: isomiso2avc1mp41
    encoder         : Lavf62.3.100
  Stream #0:0: Video: h264 (avc1 / 0x31637661), yuv420p(tv, bt709, progressive), 1280x720 [SAR 1:1 DAR 16:9], q=2-31, 30 fps, 15360 tbn
    Metadata:
      encoder         : Lavc62.11.100 libx264
    Side data:
      cpb: bitrate max/min/avg: 0/0/0 buffer size: 0 vbv_delay: N/A
  Stream #0:1: Audio: aac (LC) (mp4a / 0x6134706D), 44100 Hz, mono, fltp, 192 kb/s
    Metadata:
      encoder         : Lavc62.11.100 aac
[Parsed_subtitles_73 @ 0x90b902040] Error opening font: '/System/Library/PrivateFrameworks/FontServices.framework/Resources/Reserved/PingFangUI.ttc', 0
[Parsed_subtitles_73 @ 0x90b902040] Error opening font: '/System/Library/PrivateFrameworks/FontServices.framework/Resources/Reserved/PingFangUI.ttc', 0
[Parsed_subtitles_73 @ 0x90b902040] Error opening font: '/System/Library/PrivateFrameworks/FontServices.framework/Resources/Reserved/PingFangUI.ttc', 0
[Parsed_subtitles_73 @ 0x90b902040] Error opening font: '/System/Library/PrivateFrameworks/FontServices.framework/Resources/Reserved/PingFangUI.ttc', 0
[Parsed_subtitles_73 @ 0x90b902040] Error opening font: '/System/Library/PrivateFrameworks/FontServices.framework/Resources/Reserved/PingFangUI.ttc', 0
[Parsed_subtitles_73 @ 0x90b902040] Error opening font: '/System/Library/PrivateFrameworks/FontServices.framework/Resources/Reserved/PingFangUI.ttc', 0
[Parsed_subtitles_73 @ 0x90b902040] fontselect: (PingFang SC, 400, 0) -> /System/Library/AssetsV2/com_apple_MobileAsset_Font8/86ba2c91f017a3749571a82f2c6d890ac7ffb2fb.asset/AssetData/PingFang.ttc, -1, PingFangSC-Regular
frame=  141 fps=0.0 q=24.0 size=    2560KiB time=00:00:04.63 bitrate=4526.3kbits/s speed=9.23x elapsed=0:00:00.50    
frame=  277 fps=275 q=24.0 size=    4864KiB time=00:00:09.16 bitrate=4346.9kbits/s speed=9.11x elapsed=0:00:01.00    
[out#0/mp4 @ 0x90b078c00] video:6926KiB audio:230KiB subtitle:0KiB other streams:0KiB global headers:0KiB muxing overhead: 0.195397%
frame=  360 fps=289 q=-1.0 Lsize=    7169KiB time=00:00:11.93 bitrate=4921.6kbits/s speed=9.58x elapsed=0:00:01.24    
[libx264 @ 0x90b0a7480] frame I:4     Avg QP:16.45  size: 70802
[libx264 @ 0x90b0a7480] frame P:111   Avg QP:19.44  size: 35208
[libx264 @ 0x90b0a7480] frame B:245   Avg QP:20.38  size: 11837
[libx264 @ 0x90b0a7480] consecutive B-frames:  3.3% 12.2% 16.7% 67.8%
[libx264 @ 0x90b0a7480] mb I  I16..4:  8.0% 48.0% 44.0%
[libx264 @ 0x90b0a7480] mb P  I16..4:  9.6% 40.0%  9.2%  P16..4: 15.6% 12.4%  8.6%  0.0%  0.0%    skip: 4.7%
[libx264 @ 0x90b0a7480] mb B  I16..4:  2.4% 10.2%  1.2%  B16..8: 20.0%  8.9%  1.7%  direct: 4.7%  skip:51.1%  L0:46.5% L1:39.9% BI:13.7%
[libx264 @ 0x90b0a7480] 8x8 transform intra:69.2% inter:26.8%
[libx264 @ 0x90b0a7480] coded y,uvDC,uvAC intra: 63.3% 56.8% 6.4% inter: 13.5% 14.4% 0.1%
[libx264 @ 0x90b0a7480] i16 v,h,dc,p: 33% 22% 21% 24%
[libx264 @ 0x90b0a7480] i8 v,h,dc,ddl,ddr,vr,hd,vl,hu: 26% 23% 20%  3%  5%  6%  5%  6%  6%
[libx264 @ 0x90b0a7480] i4 v,h,dc,ddl,ddr,vr,hd,vl,hu: 23% 23% 18%  3%  9%  6%  6%  5%  6%
[libx264 @ 0x90b0a7480] i8c dc,h,v,p: 49% 23% 23%  5%
[libx264 @ 0x90b0a7480] Weighted P-Frames: Y:0.0% UV:0.0%
[libx264 @ 0x90b0a7480] kb/s:4727.58
[aac @ 0x90b0a7b80] Qavg: 63152.625
